:version 1.10
:name ASF
:units
  mass 1
  length 1
  angle deg
:documentation
  ASF file generated by Kaydara
:root
  axis xyz
  order  tx ty tz rx ry rz
  position 0 0 0
  orientation 0 0 0
:bonedata
  begin
    id 1
    name RightUpLegDummy
    direction -0.718183 -0.695806 0.00816078
    length 4.904
    axis 0 0 0 xyz
  end
  begin
    id 2
    name RightUpLeg
    direction 3.53373e-006 -0.995788 0.0916898
    length 17.4976
    axis -3.49089 -0.000906625 0.000286804 xyz
    dof rx ry rz
  end
  begin
    id 3
    name RightLeg
    direction 0.00371092 -0.995096 -0.0988419
    length 16.5821
    axis 3.68512 0.0193738 -0.131023 xyz
    dof rx ry rz
  end
  begin
    id 4
    name RightFoot
    direction 0.00079151 -0.46099 0.887405
    length 3.77069
    axis 4.81691e-005 -0.120479 -0.188788 xyz
    dof rx ry rz
  end
  begin
    id 5
    name RightToes
    direction 0 0 0
    length 0
    axis 0 0 0 xyz
    dof rx ry rz
  end
  begin
    id 6
    name SpineDummy
    direction 8.3039e-015 1 4.57515e-016
    length 4.6813
    axis 0 0 0 xyz
  end
  begin
    id 7
    name Spine
    direction -3.15643e-008 0.999988 0.00495137
    length 10.1015
    axis -0.001389 0.000121418 2.40972e-006 xyz
    dof rx ry rz
  end
  begin
    id 8
    name Spine1
    direction 0 0 0
    length 0
    axis -0.001389 0.000121451 1.30017e-006 xyz
    dof rx ry rz
  end
  begin
    id 9
    name HEadDummy
    direction -1.99912e-008 0.999999 0.00127422
    length 3.43865
    axis -0.001389 0.000121451 1.30017e-006 xyz
  end
  begin
    id 10
    name HEad
    direction 0 0 0
    length 0
    axis 0 0 0 xyz
    dof rx ry rz
  end
  begin
    id 11
    name LeftShoulder1Dummy
    direction 0.998891 -0.0402509 -0.0244456
    length 3.5433
    axis -0.001389 0.000121451 1.30017e-006 xyz
  end
  begin
    id 12
    name LeftShoulder1
    direction 0.99951 -0.000327763 0.0313091
    length 4.05031
    axis -0.001389 0.000121451 1.30017e-006 xyz
    dof rx ry rz
  end
  begin
    id 13
    name LeftArm
    direction 0.998561 -0.00100056 -0.0536182
    length 10.3537
    axis -23.1894 0.134784 0.967509 xyz
    dof rx ry rz
  end
  begin
    id 14
    name LeftForeArm
    direction 0.998903 0.00866432 0.046012
    length 8.70632
    axis -9.91835 -0.06569 -0.177794 xyz
    dof rx ry rz
  end
  begin
    id 15
    name LeftHand
    direction 0 0 0
    length 0
    axis 0 0 0 xyz
    dof rx ry rz
  end
  begin
    id 16
    name RightShoulderDummy
    direction -0.998891 -0.0402509 -0.0244414
    length 3.5433
    axis -0.001389 0.000121451 1.30017e-006 xyz
  end
  begin
    id 17
    name RightShoulder
    direction -0.99951 -0.000327807 0.0313133
    length 4.05031
    axis 0.215806 0.000203643 -0.0068026 xyz
    dof rx ry rz
  end
  begin
    id 18
    name RightArm
    direction -0.998573 -0.000999564 -0.053403
    length 10.3947
    axis -23.2009 -0.134239 -0.964101 xyz
    dof rx ry rz
  end
  begin
    id 19
    name RightForeArm
    direction -0.998898 0.00868028 0.0461306
    length 8.68355
    axis -9.92322 0.0658061 0.178868 xyz
    dof rx ry rz
  end
  begin
    id 20
    name RightHand
    direction 0 0 0
    length 0
    axis 0 0 0 xyz
    dof rx ry rz
  end
  begin
    id 21
    name LeftUpLegDummy
    direction 0.718183 -0.695806 0.00816078
    length 4.904
    axis 0 0 0 xyz
  end
  begin
    id 22
    name LeftUpLeg
    direction -6.81752e-006 -0.995793 0.0916337
    length 17.4976
    axis -3.48766 0.00143442 -0.000524262 xyz
    dof rx ry rz
  end
  begin
    id 23
    name LeftLeg
    direction -0.00601358 -0.995091 -0.0987824
    length 16.5821
    axis 3.68178 -0.00654042 -0.000285133 xyz
    dof rx ry rz
  end
  begin
    id 24
    name LeftFoot
    direction -0.00417578 -0.460984 0.887399
    length 3.77069
    axis 1.87233e-006 4.66016e-005 -8.6538e-006 xyz
    dof rx ry rz
  end
  begin
    id 25
    name LeftToes
    direction 0 0 0
    length 0
    axis 0 0 0 xyz
    dof rx ry rz
  end
:hierarchy
  begin
    root RightUpLegDummy SpineDummy LeftUpLegDummy
    RightUpLegDummy RightUpLeg
    RightUpLeg RightLeg
    RightLeg RightFoot
    RightFoot RightToes
    SpineDummy Spine
    Spine Spine1
    Spine1 HEadDummy LeftShoulder1Dummy RightShoulderDummy
    HEadDummy HEad
    LeftShoulder1Dummy LeftShoulder1
    LeftShoulder1 LeftArm
    LeftArm LeftForeArm
    LeftForeArm LeftHand
    RightShoulderDummy RightShoulder
    RightShoulder RightArm
    RightArm RightForeArm
    RightForeArm RightHand
    LeftUpLegDummy LeftUpLeg
    LeftUpLeg LeftLeg
    LeftLeg LeftFoot
    LeftFoot LeftToes
  end

:SAMPLES-PER-SECOND 30
:FULLY-SPECIFIED
:DEGREES
80
root  45.4897 40.1097 -3.03169 -142.947 -86.013 143.272
RightUpLeg  5.97845 -12.8857 -15.3563
RightLeg  24.7563 -1.76126 -1.11641
RightFoot  -0.314063 -1.3301 13.7203
RightToes  0.000481921 0.542163 -0.142578
Spine  -1.41564 0.661331 1.99943
Spine1  16.4727 3.31612 -8.02925
HEad  38.8788 5.38428 -11.981
LeftShoulder1  9.78726 -13.4118 -50.508
LeftArm  -5.83839 20.6183 -19.3153
LeftForeArm  35.1009 -10.5981 -5.663
LeftHand  -0.25398 0.0180481 5.50724
RightShoulder  4.94498 8.55444 35.0472
RightArm  0.0894703 -11.9879 41.0449
RightForeArm  0.123283 15.755 6.83557
RightHand  -1.03549 3.42258 -13.8883
LeftUpLeg  -7.7972 4.80469 -1.00466
LeftLeg  5.04843 21.6644 -4.97144
LeftFoot  0.882958 -0.532456 4.9162
LeftToes  1.06246e-005 4.65868e-005 -8.65513e-006
81
root  44.8868 40.108 -2.70538 -148.173 -85.6514 148.267
RightUpLeg  3.40478 -11.392 -15.1822
RightLeg  29.9926 -3.82991 -2.61887
RightFoot  1.8821 -1.47648 12.8001
RightToes  0.000481921 0.542163 -0.142578
Spine  -1.39069 0.491691 1.02848
Spine1  16.2215 2.84495 -7.36705
HEad  37.2975 6.5594 -11.6947
LeftShoulder1  9.84082 -13.4597 -50.6395
LeftArm  -5.62552 17.6621 -19.049
LeftForeArm  34.0411 -11.442 -5.69232
LeftHand  -0.25398 0.0180481 5.50724
RightShoulder  4.94196 8.52154 35.1328
RightArm  1.78153 -11.9315 40.8201
RightForeArm  -0.647742 18.2211 5.9775
RightHand  -0.995347 3.37326 -13.4365
LeftUpLeg  -6.83176 4.90858 -1.29177
LeftLeg  5.77774 21.9897 -4.74173
LeftFoot  -0.593148 -0.427507 4.58552
LeftToes  1.06246e-005 4.65868e-005 -8.65513e-006
82
root  44.3082 40.1188 -2.40215 -154.574 -85.3869 154.314
RightUpLeg  0.944551 -10.1537 -14.6798
RightLeg  34.5324 -5.0597 -3.97592
RightFoot  2.80442 -1.47553 12.0003
RightToes  0.000481921 0.542163 -0.142578
Spine  -1.3854 0.240592 0.352276
Spine1  15.9921 2.26498 -6.57227
HEad  36.2267 7.71226 -11.3664
LeftShoulder1  9.9231 -13.5039 -50.9263
LeftArm  -5.57727 13.9007 -18.4896
LeftForeArm  33.7603 -11.5411 -5.83776
LeftHand  -0.25398 0.0180481 5.50724
RightShoulder  4.91842 8.4817 35.0741
RightArm  2.10346 -11.6319 40.7861
RightForeArm  -2.47084 20.531 5.34997
RightHand  -1.05793 3.64399 -13.8459
LeftUpLeg  -5.64396 5.0317 -1.41437
LeftLeg  6.17322 22.3196 -4.54432
LeftFoot  -1.67256 -0.378398 4.59152
LeftToes  1.06246e-005 4.65868e-005 -8.65513e-006
83
root  43.7531 40.1494 -2.12906 -160.841 -85.156 160.121
RightUpLeg  -1.34795 -8.9956 -13.8982
RightLeg  37.8662 -5.42642 -4.76986
RightFoot  2.32501 -1.39777 11.7611
RightToes  0.000481921 0.542163 -0.142578
Spine  -1.29759 -0.0821576 -0.181896
Spine1  15.6882 1.60005 -5.71521
HEad  35.721 8.78133 -10.9209
LeftShoulder1  10.0141 -13.5273 -51.3156
LeftArm  -5.70791 9.63518 -17.6706
LeftForeArm  33.9681 -11.2603 -6.05441
LeftHand  -0.25398 0.0180481 5.50724
RightShoulder  4.88872 8.46138 34.8984
RightArm  1.41643 -11.119 40.8559
RightForeArm  -4.02491 22.5809 5.1776
RightHand  -1.1561 3.9611 -14.6121
LeftUpLeg  -4.20107 5.1715 -1.41864
LeftLeg  6.19337 22.582 -4.46406
LeftFoot  -2.65229 -0.324298 4.47468
LeftToes  1.06246e-005 4.65868e-005 -8.65513e-006
84
root  43.2283 40.1808 -1.89592 -165.861 -85.094 164.702
RightUpLeg  -3.53883 -8.05069 -12.8804
RightLeg  39.7928 -5.40329 -5.07903
RightFoot  1.23811 -1.28038 11.6544
RightToes  0.000481921 0.542163 -0.142578
Spine  -1.11535 -0.481839 -0.724632
Spine1  15.271 0.846619 -4.82058
HEad  35.4719 9.72544 -10.2061
LeftShoulder1  10.067 -13.5615 -51.4804
LeftArm  -6.03008 5.25267 -16.9982
LeftForeArm  34.41 -11.0257 -6.22336
LeftHand  -0.25398 0.0180481 5.50724
RightShoulder  4.83885 8.39037 34.7256
RightArm  0.281993 -10.5379 40.848
RightForeArm  -4.15472 24.568 5.45072
RightHand  -1.18666 3.917 -15.0519
LeftUpLeg  -2.76835 5.30862 -1.35723
LeftLeg  6.0878 22.5703 -4.4619
LeftFoot  -3.55646 -0.26773 4.25054
LeftToes  1.06246e-005 4.65868e-005 -8.65513e-006
85
root  42.7298 40.199 -1.69563 -170.85 -85.2164 169.35
RightUpLeg  -5.66908 -7.48955 -11.6508
RightLeg  40.2753 -5.37825 -5.14152
RightFoot  0.254751 -1.12959 11.1061
RightToes  0.000481921 0.542163 -0.142578
Spine  -0.817794 -0.931507 -1.21371
Spine1  14.6976 0.0375272 -3.88946
HEad  35.1631 10.4088 -9.24717
LeftShoulder1  10.0295 -13.6065 -51.1603
LeftArm  -6.45598 1.15462 -16.8653
LeftForeArm  34.6962 -11.2604 -6.22672
LeftHand  -0.25398 0.0180481 5.50724
RightShoulder  4.76995 8.26942 34.5605
RightArm  -0.334288 -10.0921 40.6505
RightForeArm  -3.37892 26.6864 5.91673
RightHand  -1.16767 3.68608 -15.1732
LeftUpLeg  -1.57425 5.47483 -1.21157
LeftLeg  6.1364 22.3175 -4.43366
LeftFoot  -4.31678 -0.23586 4.26824
LeftToes  1.06246e-005 4.65868e-005 -8.65513e-006
86
root  42.2473 40.203 -1.51333 -176.113 -85.3093 174.377
RightUpLeg  -7.7478 -7.39759 -10.3778
RightLeg  39.3764 -5.37844 -4.9868
RightFoot  -0.549939 -0.982773 10.3398
RightToes  0.000481921 0.542163 -0.142578
Spine  -0.436361 -1.37313 -1.64794
Spine1  14.0694 -0.776057 -2.88475
HEad  34.5782 10.7515 -8.22864
LeftShoulder1  9.91257 -13.6385 -50.4792
LeftArm  -6.68602 -2.40039 -17.2578
LeftForeArm  34.1664 -12.3442 -5.98632
LeftHand  -0.25398 0.0180481 5.50724
RightShoulder  4.7153 8.20081 34.334
RightArm  -0.139624 -9.78307 40.2444
RightForeArm  -2.56705 28.8355 6.38904
RightHand  -1.18382 3.65619 -15.4235
LeftUpLeg  -0.619042 5.6469 -1.04653
LeftLeg  6.38813 22.1127 -4.31044
LeftFoot  -5.12171 -0.203541 4.31002
LeftToes  1.06246e-005 4.65868e-005 -8.65513e-006
87
root  41.7695 40.187 -1.34665 -179.88 -85.1613 178.015
RightUpLeg  -9.77395 -7.78203 -9.26039
RightLeg  37.2287 -5.30181 -4.57074
RightFoot  -1.20256 -0.900034 10.0317
RightToes  0.000481921 0.542163 -0.142578
Spine  -0.125929 -1.72524 -2.16639
Spine1  13.6094 -1.51785 -1.80512
HEad  33.6384 10.944 -7.22921
LeftShoulder1  9.79055 -13.6686 -49.7765
LeftArm  -6.42411 -5.37167 -17.8708
LeftForeArm  32.511 -14.3709 -5.45061
LeftHand  -0.25398 0.0180481 5.50724
RightShoulder  4.69823 8.24175 34.0516
RightArm  0.305587 -9.47462 39.6997
RightForeArm  -1.94123 30.708 6.82343
RightHand  -1.21694 3.65107 -15.8521
LeftUpLeg  0.172145 5.73932 -1.02403
LeftLeg  6.76279 22.1894 -4.06688
LeftFoot  -6.12473 -0.145862 4.00447
LeftToes  1.06246e-005 4.65868e-005 -8.65513e-006
